<?xml version="1.0" encoding="utf-8"?>
<svg version="1.0" id="" xmlns="http://www.w3.org/2000/svg" xmlns:xlink="http://www.w3.org/1999/xlink" x="0px" y="0px"
	 viewBox="0 0 52 52" enable-background="new 0 0 52 52" xml:space="preserve">
<g>
	
		<linearGradient id="SVGID_1_" gradientUnits="userSpaceOnUse" x1="26" y1="52.6083" x2="26" y2="-1.475" gradientTransform="matrix(1 0 0 -1 0 51.8583)">
		<stop  offset="0" style="stop-color:#1536F1"/>
		<stop  offset="1" style="stop-color:#920DE9"/>
	</linearGradient>
	<path fill="url(#SVGID_1_)" d="M46.5,29.1L38,20.6V18c0-6.3-4.1-18-12-18S14,11.7,14,18v2.6l-8.5,8.5C4.5,30.1,4,31.3,4,32.7V39
		c0,1.7,1.3,3,3,3h5v1c0,1.7,1.3,3,3,3h1v1c0,1.7,1.3,3,3,3h4.2c0.4,1.2,1.5,2,2.8,2c1.3,0,2.4-0.8,2.8-2H33c1.7,0,3-1.3,3-3v-1h1
		c1.7,0,3-1.3,3-3v-1h5c1.7,0,3-1.3,3-3v-6.3C48,31.3,47.5,30.1,46.5,29.1z M26,2c6.2,0,10,10.4,10,16v18h-4v2h4v2h-7v-5
		c0-1.7-1.3-3-3-3s-3,1.3-3,3v5h-7v-2h4v-2h-4V18C16,12.4,19.8,2,26,2z M7,40c-0.6,0-1-0.4-1-1v-6.3c0-0.8,0.3-1.6,0.9-2.1l3.1-3.1
		V38h2V25.4l2-2V40h-2H7z M15,44c-0.6,0-1-0.4-1-1v-1h1h8v2H15z M18,47v-1h5v2h-4C18.4,48,18,47.6,18,47z M27,49c0,0.6-0.4,1-1,1
		s-1-0.4-1-1V35c0-0.6,0.4-1,1-1c0.6,0,1,0.4,1,1V49z M34,47c0,0.6-0.4,1-1,1h-4v-2h5V47z M38,43c0,0.6-0.4,1-1,1h-8v-2h8h1V43z
		 M46,39c0,0.6-0.4,1-1,1h-5h-2V23.4l2,2V38h2V27.4l3.1,3.1c0.6,0.6,0.9,1.3,0.9,2.1V39z"/>
	
		<linearGradient id="SVGID_2_" gradientUnits="userSpaceOnUse" x1="26" y1="52.6083" x2="26" y2="-1.475" gradientTransform="matrix(1 0 0 -1 0 51.8583)">
		<stop  offset="0" style="stop-color:#1536F1"/>
		<stop  offset="1" style="stop-color:#920DE9"/>
	</linearGradient>
	<path fill="url(#SVGID_2_)" d="M26,24c2.8,0,5-2.2,5-5s-2.2-5-5-5s-5,2.2-5,5S23.2,24,26,24z M26,16c1.7,0,3,1.3,3,3s-1.3,3-3,3
		s-3-1.3-3-3S24.3,16,26,16z"/>
</g>
</svg>