<?xml version="1.0" standalone="no"?>
<!DOCTYPE svg PUBLIC "-//W3C//DTD SVG 20010904//EN"
 "http://www.w3.org/TR/2001/REC-SVG-20010904/DTD/svg10.dtd">
<svg version="1.0" xmlns="http://www.w3.org/2000/svg"
 width="1539.000000pt" height="1539.000000pt" viewBox="0 0 1539.000000 1539.000000"
 preserveAspectRatio="xMidYMid meet">
<metadata>
Created by potrace 1.14, written by Peter Selinger 2001-2017
</metadata>
<g transform="translate(0.000000,1539.000000) scale(0.100000,-0.100000)"
fill="#000000" stroke="none">
<path d="M8995 13370 c-11 -5 -44 -9 -74 -9 -62 -1 -151 -15 -291 -47 -14 -3
-45 -10 -70 -15 -25 -5 -55 -13 -67 -19 -45 -20 -69 -29 -108 -41 -22 -6 -46
-16 -52 -22 -7 -5 -13 -6 -13 -2 0 5 -8 1 -17 -7 -17 -14 -84 -48 -100 -50 -5
0 -25 -12 -45 -24 -21 -13 -40 -24 -43 -24 -3 0 -14 -9 -26 -21 -11 -11 -25
-19 -31 -16 -7 2 -20 -4 -30 -12 -10 -9 -26 -23 -36 -32 -10 -8 -24 -13 -30
-11 -7 2 -12 -1 -12 -6 0 -5 -13 -15 -28 -21 -15 -7 -40 -23 -55 -37 -15 -14
-27 -23 -27 -20 0 3 -12 -6 -27 -20 -14 -13 -28 -22 -31 -19 -3 2 -13 -7 -24
-20 -11 -14 -25 -25 -33 -25 -7 0 -16 -7 -19 -16 -4 -9 -9 -15 -12 -12 -3 3
-24 -12 -47 -33 -22 -22 -45 -39 -49 -39 -13 0 -47 -38 -41 -44 4 -3 1 -6 -5
-6 -19 0 -133 -120 -126 -132 4 -7 2 -8 -4 -4 -16 10 -68 -48 -95 -106 -11
-26 -24 -45 -28 -43 -3 3 -18 -22 -32 -54 -14 -32 -32 -65 -39 -72 -8 -8 -40
-67 -72 -132 -32 -64 -62 -120 -67 -123 -5 -3 -7 -9 -4 -14 3 -5 -3 -28 -15
-52 -11 -23 -20 -46 -20 -50 0 -5 -9 -28 -21 -51 -11 -23 -23 -58 -26 -77 -3
-19 -36 -159 -74 -311 -38 -152 -69 -290 -69 -306 0 -17 -9 -66 -20 -109 -15
-61 -19 -114 -19 -234 0 -86 -3 -163 -7 -173 -5 -15 -14 -17 -53 -11 -25 4
-59 13 -75 21 -32 17 -96 13 -138 -8 -46 -23 -60 -83 -38 -159 6 -19 11 -71
12 -115 1 -44 5 -87 9 -95 4 -8 8 -46 10 -85 2 -38 7 -75 11 -81 4 -6 9 -109
11 -229 2 -163 5 -219 15 -223 6 -2 12 -10 12 -18 0 -8 5 -14 10 -14 6 0 10
-7 10 -15 0 -9 9 -25 20 -37 11 -12 20 -28 20 -35 0 -7 4 -13 9 -13 8 0 18
-19 27 -55 22 -81 30 -102 41 -113 7 -7 14 -19 15 -25 2 -22 5 -32 11 -47 4
-8 8 -33 10 -55 2 -22 7 -38 11 -35 4 3 15 -11 24 -30 19 -41 37 -62 46 -53 3
4 6 -1 6 -9 0 -12 57 -45 90 -53 3 0 15 -6 27 -13 38 -21 44 -61 45 -332 0
-97 -12 -204 -25 -215 -15 -12 -36 -55 -38 -75 -4 -43 2 -70 17 -70 8 0 12 -4
9 -10 -3 -5 -2 -10 3 -10 20 0 34 -60 30 -129 -2 -39 0 -71 4 -71 3 0 10 -10
13 -22 4 -13 13 -37 21 -54 7 -18 20 -56 28 -85 9 -39 19 -55 32 -58 39 -7 43
-18 29 -80 -8 -31 -14 -79 -14 -107 0 -27 -12 -94 -26 -149 -14 -55 -28 -116
-31 -135 -8 -52 -35 -133 -50 -151 -8 -9 -12 -19 -9 -22 3 -4 2 -5 -1 -3 -3 2
-20 -9 -37 -26 -29 -26 -37 -29 -77 -23 -25 4 -116 8 -202 10 -155 4 -158 4
-212 -23 -31 -15 -55 -33 -56 -39 0 -7 -4 -13 -9 -13 -11 0 -67 -58 -63 -65 1
-3 -25 -32 -58 -64 l-60 -59 -85 2 c-54 1 -85 -2 -85 -9 0 -9 -74 -49 -92 -50
-3 0 -18 -10 -33 -23 -15 -13 -40 -31 -56 -41 -16 -10 -26 -21 -22 -24 3 -4 2
-7 -4 -7 -5 0 -24 -13 -42 -29 -18 -16 -71 -48 -117 -71 -46 -23 -84 -46 -84
-51 0 -6 -4 -8 -9 -5 -5 3 -28 -1 -51 -9 -23 -8 -62 -16 -85 -17 -24 -2 -41
-6 -39 -9 4 -7 -82 -45 -123 -55 -15 -4 -32 -10 -38 -14 -5 -5 -28 -11 -50
-15 -22 -4 -59 -16 -81 -26 -23 -10 -56 -20 -73 -21 -17 -1 -31 -6 -31 -10 0
-8 -55 -39 -67 -38 -5 1 -24 -6 -43 -14 -49 -20 -153 -51 -163 -48 -5 1 -6 -2
-3 -7 4 -5 -11 -15 -31 -21 -21 -7 -44 -18 -52 -24 -8 -6 -16 -10 -17 -9 -2 1
-9 1 -16 -1 -88 -28 -160 -45 -193 -48 -22 -2 -45 -9 -51 -17 -6 -8 -44 -17
-93 -21 -45 -5 -88 -13 -95 -19 -13 -11 -66 -20 -141 -25 -28 -1 -55 -5 -60
-8 -16 -10 -115 -37 -115 -32 0 2 -14 -3 -31 -11 -17 -9 -33 -14 -37 -11 -3 3
-10 2 -16 -3 -6 -5 -31 -11 -56 -13 -25 -1 -47 -5 -50 -8 -12 -12 -127 -57
-152 -59 -5 -1 -8 -9 -8 -18 0 -15 -2 -16 -10 -3 -5 8 -10 10 -10 4 0 -6 -17
-18 -38 -27 -52 -24 -114 -59 -135 -79 -11 -9 -31 -19 -45 -23 -35 -9 -95 -37
-103 -48 -3 -4 -10 -7 -15 -6 -5 1 -22 -3 -37 -9 -16 -7 -33 -12 -38 -12 -5 0
-9 -4 -9 -9 0 -6 -9 -8 -20 -6 -13 2 -20 -2 -20 -11 0 -8 -8 -14 -18 -14 -11
0 -27 -9 -37 -20 -10 -11 -21 -17 -25 -15 -4 3 -10 -2 -14 -10 -3 -8 -15 -15
-26 -15 -12 0 -24 -9 -29 -24 -5 -12 -37 -51 -70 -86 -34 -35 -61 -67 -61 -72
0 -5 -3 -7 -7 -5 -10 5 -132 -120 -125 -128 3 -3 1 -5 -5 -5 -17 0 -48 -34
-66 -72 -10 -20 -32 -53 -50 -72 -35 -37 -48 -56 -73 -100 -9 -16 -31 -43 -49
-62 -18 -18 -31 -35 -29 -37 3 -2 -2 -10 -11 -17 -8 -7 -15 -18 -15 -24 0 -6
-13 -26 -29 -43 -16 -18 -27 -34 -25 -36 2 -2 -15 -24 -39 -48 -23 -25 -48
-62 -56 -84 -7 -22 -24 -55 -38 -73 -13 -17 -21 -32 -18 -32 7 0 -31 -76 -56
-111 -10 -14 -16 -29 -12 -33 3 -3 2 -6 -4 -6 -5 0 -22 -27 -37 -60 -15 -33
-32 -60 -36 -60 -5 0 -11 -14 -15 -30 -4 -17 -12 -36 -18 -43 -13 -13 -57
-116 -57 -132 0 -6 -9 -16 -20 -23 -11 -7 -20 -21 -20 -31 0 -21 -15 -52 -47
-97 -12 -17 -20 -34 -16 -38 3 -3 1 -6 -5 -6 -6 0 -14 -9 -17 -20 -3 -11 -12
-26 -18 -32 -7 -7 -39 -66 -71 -131 -32 -65 -69 -133 -82 -153 -13 -19 -24
-39 -24 -45 0 -5 -9 -28 -19 -49 -10 -22 -24 -62 -31 -89 -6 -28 -18 -55 -26
-62 -7 -6 -12 -15 -9 -19 2 -4 0 -22 -6 -41 -6 -19 -12 -45 -15 -59 -3 -14 -9
-41 -14 -60 -5 -20 -9 -74 -9 -120 1 -104 -8 -129 -68 -188 -26 -26 -46 -51
-44 -57 1 -5 -1 -7 -5 -3 -4 4 -25 -7 -48 -25 -57 -44 -66 -54 -59 -61 4 -3 2
-6 -4 -6 -6 0 -60 -50 -121 -110 -60 -61 -108 -110 -106 -110 2 0 -5 -16 -16
-35 -56 -100 -65 -306 -18 -397 14 -26 29 -44 33 -40 5 4 5 -1 2 -11 -4 -10
-3 -16 2 -13 12 8 55 -51 59 -81 1 -14 -2 -31 -9 -39 -6 -8 -8 -14 -5 -14 4 0
1 -6 -6 -14 -7 -8 -16 -12 -20 -9 -5 2 -8 0 -8 -4 0 -5 -13 -23 -29 -41 -17
-17 -27 -32 -23 -32 4 0 1 -4 -7 -9 -17 -11 -32 -156 -37 -375 -4 -147 -8
-183 -34 -283 -26 -99 -30 -131 -30 -246 0 -136 6 -181 21 -171 5 3 9 -3 9
-13 0 -11 5 -24 11 -30 18 -18 14 -151 -5 -182 -5 -7 -10 -27 -13 -44 -3 -18
-12 -40 -21 -50 -13 -15 -17 -44 -20 -140 -1 -67 -5 -129 -9 -137 -8 -18 -7
-16 -17 -65 -4 -22 -13 -49 -19 -60 -6 -11 -12 -30 -13 -42 l-3 -23 7060 0
c5640 0 7059 3 7059 13 0 6 -5 29 -10 49 -6 21 -13 102 -15 180 -5 221 -20
407 -33 420 -7 7 -12 20 -12 30 0 10 -3 18 -7 18 -5 0 -7 30 -6 67 1 38 -2 86
-7 108 -5 22 -12 72 -14 110 -3 39 -10 97 -15 129 -5 33 -8 63 -5 67 2 4 -1 9
-6 11 -6 2 -12 43 -14 93 -1 50 -5 97 -8 105 -16 41 -29 112 -32 175 -8 132
-23 250 -34 271 -6 12 -9 23 -7 26 5 5 -12 111 -22 138 -11 30 -13 47 -14 200
-1 109 -7 182 -20 245 -20 99 -24 120 -40 215 -5 35 -14 69 -19 76 -6 6 -17
51 -25 100 -9 49 -25 123 -37 164 -11 41 -20 84 -20 94 1 11 -10 43 -23 72
-13 28 -26 67 -29 85 -3 19 -8 45 -10 59 -2 14 -11 39 -20 55 -9 17 -16 44
-16 60 0 17 -7 55 -15 85 -8 30 -12 56 -10 58 2 2 -7 21 -20 41 -12 21 -30 59
-39 85 -9 26 -23 61 -31 77 -9 16 -13 29 -10 29 3 0 -5 20 -19 44 -13 24 -22
47 -19 50 3 3 -2 8 -11 12 -9 3 -16 14 -16 24 0 11 -5 22 -11 25 -6 4 -8 13
-5 20 2 7 -1 16 -8 18 -8 3 -19 29 -26 58 -7 29 -23 63 -36 76 -13 13 -27 36
-30 50 -8 30 -46 73 -65 73 -7 0 -10 3 -6 6 8 8 -18 34 -34 34 -7 0 -10 3 -6
6 3 3 -3 15 -14 27 -10 11 -19 27 -19 34 0 8 -4 11 -10 8 -6 -3 -10 -1 -10 6
0 13 -38 49 -52 49 -4 0 -28 20 -52 45 -25 25 -49 45 -54 45 -5 0 -17 9 -27
20 -10 11 -23 20 -29 20 -6 0 -25 13 -42 30 -18 16 -35 26 -38 23 -3 -4 -6 2
-6 12 0 10 -3 16 -6 12 -3 -3 -17 4 -31 16 -13 12 -28 23 -31 23 -27 6 -52 18
-52 26 0 5 -4 7 -8 4 -5 -3 -18 3 -28 13 -11 9 -25 16 -32 13 -6 -2 -12 3 -12
12 0 9 -7 16 -16 16 -8 0 -13 4 -10 8 2 4 -7 9 -22 10 -15 1 -28 6 -30 11 -2
5 -42 29 -90 52 -48 24 -88 47 -90 51 -2 4 -29 20 -60 35 -31 15 -58 31 -60
35 -2 4 -12 8 -22 8 -10 0 -26 8 -36 18 -10 9 -19 16 -21 14 -9 -7 -61 43 -56
53 4 5 3 7 -2 3 -4 -4 -21 2 -36 13 -16 11 -38 22 -50 24 -11 2 -26 8 -33 13
-6 5 -40 22 -76 38 -36 15 -78 38 -93 51 -16 13 -39 26 -53 29 -13 3 -24 11
-24 16 0 6 -7 8 -15 4 -9 -3 -15 0 -15 9 0 8 -6 15 -13 15 -8 0 -22 9 -32 20
-10 11 -24 20 -32 20 -7 0 -13 5 -13 10 0 6 -6 10 -13 10 -8 0 -27 11 -42 24
-16 14 -32 23 -37 20 -4 -3 -8 -1 -8 4 0 5 -17 17 -37 27 -68 30 -123 60 -123
66 0 3 -6 6 -14 6 -19 0 -86 32 -86 42 0 4 -11 13 -24 19 -14 6 -36 21 -50 33
-15 13 -32 24 -39 25 -17 2 -119 66 -137 85 -8 9 -36 25 -62 37 -27 11 -48 25
-48 30 0 6 -12 13 -27 17 -16 3 -37 15 -48 25 -11 10 -30 21 -43 25 -12 3 -19
11 -16 17 4 6 2 8 -3 5 -16 -10 -74 23 -114 64 -20 21 -39 35 -43 32 -3 -4 -6
1 -6 10 0 9 -7 17 -16 17 -8 0 -13 4 -10 9 7 11 -39 31 -73 31 -35 0 -96 56
-98 90 -2 21 -37 60 -54 60 -4 0 -19 11 -32 24 -14 14 -28 22 -31 19 -3 -4 -6
-1 -6 6 0 14 -62 77 -72 73 -5 -1 -8 2 -8 8 0 17 -63 75 -103 95 -50 26 -102
75 -121 117 -9 18 -29 49 -46 68 -16 19 -30 38 -30 42 0 10 -49 58 -62 61 -6
1 -24 15 -40 31 -15 16 -28 25 -28 21 0 -4 -7 -2 -14 5 -8 6 -30 14 -48 17
-18 3 -46 12 -63 21 -16 9 -33 15 -38 14 -4 -1 -6 1 -5 5 0 5 -2 16 -6 25 -5
10 -5 59 -2 110 4 51 8 132 11 180 2 48 8 104 14 125 6 21 11 53 11 71 0 29
17 50 138 172 75 76 138 144 140 152 2 7 10 18 18 25 17 12 22 62 8 84 -12 20
-5 70 15 99 9 14 18 39 19 55 2 17 7 46 13 65 5 19 9 49 9 65 0 17 10 42 25
59 13 16 22 32 19 37 -3 5 2 6 10 3 11 -4 16 0 16 14 0 10 9 31 20 45 11 14
20 30 20 35 0 5 19 29 41 53 40 43 42 47 49 129 4 47 13 99 20 115 7 17 15 40
17 52 2 12 12 50 23 84 11 34 20 81 20 105 0 34 6 48 27 69 15 14 31 25 34 25
4 0 29 22 57 49 38 37 54 63 70 113 12 35 26 77 33 93 7 17 13 35 15 42 1 7
14 38 30 70 15 32 26 62 25 66 -1 5 2 7 6 5 5 -3 33 21 63 52 54 56 55 59 58
121 1 35 7 78 12 94 12 39 11 175 -2 199 -5 10 -11 44 -12 75 -2 31 -6 64 -11
73 -14 35 1 116 52 275 23 72 46 122 63 142 15 16 30 40 33 53 5 22 -4 62 -13
57 -3 -2 -17 5 -32 15 -41 27 -134 6 -186 -41 -33 -30 -68 -18 -64 23 7 62 -2
356 -11 370 -3 5 -6 50 -8 99 -1 50 -6 95 -11 102 -5 7 -10 43 -10 80 0 37 -5
78 -9 91 -5 13 -9 58 -10 100 -1 42 -6 88 -11 102 -6 14 -10 45 -9 70 1 25 -7
79 -18 121 -11 41 -22 96 -24 121 -3 25 -10 55 -16 67 -7 12 -9 26 -6 31 3 5
1 11 -4 14 -5 3 -12 23 -16 43 -4 21 -11 44 -17 51 -6 6 -7 12 -3 12 4 0 3 6
-3 13 -6 7 -13 24 -16 39 -5 32 -25 70 -40 80 -6 4 -11 11 -11 15 0 8 -23 67
-49 123 -6 14 -17 31 -23 38 -7 7 -13 18 -13 23 0 18 -48 114 -67 134 -10 11
-30 36 -43 55 -13 19 -32 44 -42 54 -10 11 -18 26 -18 33 0 7 -3 13 -8 13 -4
0 -18 18 -32 39 -13 22 -28 38 -32 35 -4 -3 -8 2 -8 11 0 9 -4 13 -10 10 -5
-3 -10 -1 -10 5 0 15 -46 60 -61 60 -7 0 -10 3 -7 6 5 5 -17 29 -67 72 -8 7
-15 10 -15 6 0 -4 -8 3 -19 14 -10 12 -21 19 -25 15 -3 -3 -6 -1 -6 5 0 10
-38 54 -53 60 -30 12 -67 39 -67 48 0 6 -11 16 -25 22 -14 6 -25 16 -25 22 0
5 -3 9 -7 8 -13 -4 -56 23 -78 47 -11 13 -30 26 -42 30 -13 3 -23 11 -23 16 0
6 -4 8 -8 5 -5 -3 -18 4 -30 14 -12 11 -25 20 -30 20 -5 0 -15 7 -22 15 -7 9
-15 14 -17 11 -2 -2 -48 19 -101 46 -53 28 -105 52 -116 54 -10 2 -36 12 -57
24 -22 11 -39 17 -39 15 0 -3 -13 1 -30 10 -16 9 -30 13 -30 11 0 -3 -24 6
-52 19 -29 14 -61 25 -71 25 -10 0 -32 8 -50 17 -18 9 -39 18 -47 18 -8 0 -24
5 -35 11 -11 6 -40 12 -65 13 -25 2 -47 6 -50 10 -7 11 -321 12 -345 1z"/>
</g>
</svg>
